<svg width="24" height="24" viewBox="0 0 24 24" fill="none" xmlns="http://www.w3.org/2000/svg">
<mask id="mask0_110_1914" style="mask-type:alpha" maskUnits="userSpaceOnUse" x="0" y="0" width="24" height="24">
<rect width="24" height="24" fill="#914EA5"/>
</mask>
<g mask="url(#mask0_110_1914)">
<path d="M9.7 10.8V13.2C9.7 13.4267 9.77667 13.6167 9.93 13.77C10.0833 13.9233 10.2733 14 10.5 14C10.7267 14 10.9167 13.9233 11.07 13.77C11.2233 13.6167 11.3 13.4267 11.3 13.2V10.8H13.7C13.9267 10.8 14.1167 10.7233 14.27 10.57C14.4233 10.4167 14.5 10.2267 14.5 10C14.5 9.77333 14.4233 9.58333 14.27 9.43C14.1167 9.27667 13.9267 9.2 13.7 9.2H11.3V6.8C11.3 6.57333 11.2233 6.38333 11.07 6.23C10.9167 6.07667 10.7267 6 10.5 6C10.2733 6 10.0833 6.07667 9.93 6.23C9.77667 6.38333 9.7 6.57333 9.7 6.8V9.2H7.3C7.07333 9.2 6.88333 9.27667 6.73 9.43C6.57667 9.58333 6.5 9.77333 6.5 10C6.5 10.2267 6.57667 10.4167 6.73 10.57C6.88333 10.7233 7.07333 10.8 7.3 10.8H9.7ZM10.5 18C9.39333 18 8.35333 17.79 7.38 17.37C6.40667 16.95 5.56 16.38 4.84 15.66C4.12 14.94 3.55 14.0933 3.13 13.12C2.71 12.1467 2.5 11.1067 2.5 10C2.5 8.89333 2.71 7.85333 3.13 6.88C3.55 5.90667 4.12 5.06 4.84 4.34C5.56 3.62 6.40667 3.05 7.38 2.63C8.35333 2.21 9.39333 2 10.5 2C11.6067 2 12.6467 2.21 13.62 2.63C14.5933 3.05 15.44 3.62 16.16 4.34C16.88 5.06 17.45 5.90667 17.87 6.88C18.29 7.85333 18.5 8.89333 18.5 10C18.5 11.1067 18.29 12.1467 17.87 13.12C17.45 14.0933 16.88 14.94 16.16 15.66C15.44 16.38 14.5933 16.95 13.62 17.37C12.6467 17.79 11.6067 18 10.5 18ZM10.5 16.4C12.2867 16.4 13.8 15.78 15.04 14.54C16.28 13.3 16.9 11.7867 16.9 10C16.9 8.21333 16.28 6.7 15.04 5.46C13.8 4.22 12.2867 3.6 10.5 3.6C8.71333 3.6 7.2 4.22 5.96 5.46C4.72 6.7 4.1 8.21333 4.1 10C4.1 11.7867 4.72 13.3 5.96 14.54C7.2 15.78 8.71333 16.4 10.5 16.4Z" fill="#FEFDFF"/>
</g>
</svg>
